Coordinates
version=1
nRows=36
nColumns=38
inDegrees=no

Units are S.I. units (second, meters, Newtons, ...)
If the header above contains a line with 'inDegrees', this indicates whether rotational values are in degrees (yes) or radians (no).

endheader
time	pelvis_tilt	pelvis_list	pelvis_rotation	pelvis_tx	pelvis_ty	pelvis_tz	hip_flexion_r	hip_adduction_r	hip_rotation_r	knee_angle_r	ankle_angle_r	subtalar_angle_r	mtp_angle_r	hip_flexion_l	hip_adduction_l	hip_rotation_l	knee_angle_l	ankle_angle_l	subtalar_angle_l	mtp_angle_l	lumbar_extension	lumbar_bending	lumbar_rotation	arm_flex_r	arm_add_r	arm_rot_r	elbow_flex_r	pro_sup_r	wrist_flex_r	wrist_dev_r	arm_flex_l	arm_add_l	arm_rot_l	elbow_flex_l	pro_sup_l	wrist_flex_l	wrist_dev_l
5.425	0.132624	-0.0247927	-3.06879	-0.245612	0.967509	0.00919081	0.557561	0.0181962	-0.0841741	0.3205	0.147099	0	0	-0.0491722	0.0353252	-0.0854003	0.672556	-0.381549	0	0	-0.147287	0.030389	-0.211776	-0.356509	-0.626071	0.48177	1.94848	1.34694	0	0	0.500156	-0.495306	0.885152	2.054	1.36642	0	0
5.43499	0.119777	-0.0231252	-3.08222	-0.245105	0.962171	0.00823578	0.55477	0.0243818	-0.0865849	0.362375	0.13894	0	0	-0.044672	0.0260299	-0.110736	0.727601	-0.391788	0	0	-0.164596	0.0355534	-0.203197	-0.318453	-0.630624	0.499247	1.95781	1.34366	0	0	0.486196	-0.497376	0.881821	2.03791	1.36342	0	0
5.44498	0.104912	-0.0199449	-3.09617	-0.244317	0.956498	0.00732286	0.550715	0.0315326	-0.0893226	0.410777	0.134404	0	0	-0.0393684	0.0150924	-0.134545	0.78585	-0.396781	0	0	-0.184795	0.0423568	-0.193282	-0.274879	-0.635005	0.519267	1.96736	1.33873	0	0	0.470495	-0.498509	0.876592	2.01973	1.36	0	0
5.45497	0.088551	-0.0154165	-3.11036	-0.243259	0.950601	0.0064828	0.545411	0.039405	-0.0919715	0.4641	0.13521	0	0	-0.0328318	0.00296904	-0.156081	0.846582	-0.396054	0	0	-0.207239	0.0505748	-0.182292	-0.226182	-0.638838	0.541575	1.97683	1.33236	0	0	0.452837	-0.498701	0.869397	1.99961	1.35625	0	0
5.46496	0.0713458	-0.00981826	-3.1245	-0.241957	0.944588	0.00574248	0.538899	0.0476387	-0.0942864	0.520568	0.142499	0	0	-0.0244957	-0.00977584	-0.174708	0.909013	-0.389398	0	0	-0.231105	0.059872	-0.170544	-0.172869	-0.641721	0.565902	1.9859	1.32484	0	0	0.432985	-0.498	0.860211	1.97777	1.35227	0	0
5.47495	0.0540634	-0.00354126	-3.13824	-0.240449	0.938559	0.00512126	0.531251	0.0557473	-0.0962574	0.578259	0.156594	0	0	-0.0136783	-0.0225044	-0.18994	0.972304	-0.376926	0	0	-0.255391	0.069799	-0.158386	-0.115608	-0.643238	0.591921	1.99423	1.31649	0	0	0.410713	-0.496516	0.849087	1.95453	1.34816	0	0
5.48494	0.037554	0.00292591	-3.15125	-0.238784	0.932598	0.00462566	0.52261	0.0631471	-0.0980595	0.635247	0.177034	0	0	0.000375068	-0.0345509	-0.201446	1.03558	-0.359061	0	0	-0.278943	0.079799	-0.146191	-0.0552494	-0.642965	0.619232	2.0015	1.30771	0	0	0.385839	-0.494432	0.83616	1.9303	1.34407	0	0
5.49494	0.0226572	0.00905413	-3.16317	-0.237021	0.926781	0.00424446	0.513193	0.0692572	-0.099917	0.689805	0.202856	0	0	0.0183829	-0.0453015	-0.20905	1.09794	-0.336485	0	0	-0.300565	0.0892626	-0.134344	0.00721884	-0.640497	0.647368	2.00741	1.29897	0	0	0.35825	-0.49202	0.821624	1.90557	1.34014	0	0
5.50493	0.0100434	0.0143624	-3.17365	-0.235221	0.921183	0.00394912	0.503171	0.0736317	-0.101972	0.740521	0.23289	0	0	0.0408395	-0.0542848	-0.212737	1.15846	-0.310068	0	0	-0.319218	0.0976205	-0.123173	0.0707148	-0.635505	0.675788	2.01176	1.29072	0	0	0.327953	-0.489613	0.805714	1.88093	1.33659	0	0
5.51492	6.29403e-05	0.0184929	-3.18247	-0.23344	0.915892	0.00370036	0.492531	0.0760561	-0.104203	0.786308	0.265895	0	0	0.0678248	-0.0612208	-0.212698	1.21622	-0.280777	0	0	-0.334232	0.104424	-0.112824	0.134115	-0.627823	0.703862	2.01449	1.28338	0	0	0.295148	-0.487552	0.788723	1.85698	1.33369	0	0
5.52491	-0.00730552	0.0212351	-3.18954	-0.231723	0.911012	0.00345773	0.481006	0.0765558	-0.106408	0.826363	0.300633	0	0	0.0989354	-0.0660115	-0.209354	1.27025	-0.249598	0	0	-0.345419	0.109372	-0.1032	0.196335	-0.617504	0.730902	2.01576	1.27724	0	0	0.260238	-0.486137	0.770999	1.83434	1.33171	0	0
5.5349	-0.0123956	0.0225162	-3.19495	-0.230102	0.906661	0.00318719	0.468117	0.0753395	-0.108268	0.860115	0.335903	0	0	0.133356	-0.0687112	-0.203334	1.3196	-0.217447	0	0	-0.353044	0.112304	-0.0939875	0.256439	-0.604828	0.756276	2.01588	1.27244	0	0	0.223773	-0.485613	0.752903	1.81361	1.3309	0	0
5.54489	-0.0157233	0.0223776	-3.19896	-0.228593	0.902964	0.00286494	0.453269	0.0727213	-0.109443	0.887154	0.370563	0	0	0.170022	-0.0694993	-0.195401	1.36336	-0.185124	0	0	-0.357695	0.113186	-0.0847643	0.313731	-0.590257	0.77952	2.01528	1.26895	0	0	0.186332	-0.486158	0.734743	1.79536	1.33144	0	0
5.55488	-0.0178383	0.020941	-3.20186	-0.2272	0.900038	0.00247877	0.435891	0.0690457	-0.10965	0.907184	0.40354	0	0	0.207811	-0.0686422	-0.186365	1.4007	-0.153287	0	0	-0.360102	0.112082	-0.0750973	0.367766	-0.574365	0.800391	2.01441	1.26667	0	0	0.14844	-0.487874	0.716725	1.7801	1.33338	0	0
5.56487	-0.0191999	0.018363	-3.20402	-0.225923	0.89798	0.00202755	0.415562	0.0646328	-0.108679	0.92002	0.433846	0	0	0.245702	-0.0664386	-0.176993	1.43092	-0.122468	0	0	-0.360959	0.109112	-0.0646211	0.418295	-0.557765	0.818866	2.01364	1.26548	0	0	0.110519	-0.490775	0.698954	1.76818	1.33656	0	0
5.57486	-0.0201127	0.0148017	-3.20575	-0.224763	0.89686	0.00151871	0.392079	0.0597531	-0.106392	0.925608	0.460583	0	0	0.282859	-0.0631759	-0.16795	1.45342	-0.0930873	0	0	-0.360787	0.104428	-0.0530864	0.465199	-0.541052	0.835102	2.01327	1.26526	0	0	0.0728706	-0.494794	0.681458	1.75975	1.34064	0	0
5.58485	-0.0207308	0.0104105	-3.20729	-0.223729	0.896718	0.000964453	0.365452	0.0546276	-0.102728	0.924035	0.482941	0	0	0.318631	-0.0591169	-0.159751	1.46775	-0.0654811	0	0	-0.3599	0.0982113	-0.0403801	0.508424	-0.524748	0.849393	2.01345	1.26587	0	0	0.0356834	-0.499783	0.664218	1.75475	1.34511	0	0
5.59484	-0.0210994	0.00534175	-3.20881	-0.22284	0.897564	0.000379003	0.335853	0.0494256	-0.0977252	0.915523	0.500205	0	0	0.352508	-0.0544946	-0.152741	1.47357	-0.039918	0	0	-0.358427	0.0906744	-0.0265331	0.547958	-0.509275	0.862128	2.0142	1.26709	0	0	-0.000954388	-0.505548	0.647173	1.75291	1.34941	0	0
5.60483	-0.0211928	-0.000263824	-3.21034	-0.222127	0.899383	-0.00022193	0.303578	0.0442453	-0.0915388	0.900438	0.511753	0	0	0.384098	-0.049485	-0.147083	1.47067	-0.0166197	0	0	-0.356367	0.0820471	-0.0117237	0.583816	-0.494935	0.873767	2.01545	1.26866	0	0	-0.037038	-0.511869	0.630218	1.75383	1.353	0	0
5.61483	-0.0209356	-0.0062945	-3.21182	-0.221623	0.902128	-0.000820865	0.269035	0.0391	-0.0844307	0.879307	0.517077	0	0	0.413113	-0.0441791	-0.14278	1.45895	0.00423762	0	0	-0.353625	0.0725477	0.00374181	0.616042	-0.481907	0.884798	2.01703	1.27026	0	0	-0.0726279	-0.518527	0.613198	1.75708	1.35546	0	0
5.62482	-0.0202094	-0.0126725	-3.21315	-0.22136	0.905725	-0.00139884	0.232748	0.033934	-0.076734	0.852814	0.515784	0	0	0.439375	-0.0385817	-0.139708	1.43845	0.0225386	0	0	-0.350045	0.0623665	0.0194826	0.644704	-0.470261	0.895699	2.01876	1.27157	0	0	-0.10782	-0.525314	0.59592	1.76219	1.35654	0	0
5.63481	-0.0188519	-0.0193424	-3.21415	-0.221368	0.910074	-0.00193667	0.195342	0.0286562	-0.068815	0.821777	0.507546	0	0	0.462815	-0.0326378	-0.137665	1.40931	0.0382509	0	0	-0.34542	0.0516686	0.0351177	0.669872	-0.459994	0.9069	2.02039	1.2723	0	0	-0.142701	-0.53203	0.578202	1.76873	1.35622	0	0
5.6448	-0.0166564	-0.0262549	-3.21469	-0.221669	0.915057	-0.00241678	0.157529	0.0231756	-0.0610383	0.787098	0.492115	0	0	0.483474	-0.0262671	-0.136399	1.37178	0.0514409	0	0	-0.339492	0.0406061	0.0503313	0.691605	-0.45106	0.918746	2.02173	1.27226	0	0	-0.1773	-0.538503	0.559926	1.77628	1.35468	0	0
5.65479	-0.0133816	-0.033348	-3.21467	-0.222278	0.920534	-0.00282518	0.120081	0.0174341	-0.053733	0.749733	0.469401	0	0	0.50149	-0.0193998	-0.135625	1.32621	0.0622805	0	0	-0.33196	0.0293332	0.0649167	0.709932	-0.443395	0.931474	2.02257	1.27135	0	0	-0.211564	-0.544589	0.541072	1.78442	1.35223	0	0
5.66478	-0.00877499	-0.0405326	-3.21404	-0.223204	0.926357	-0.00315273	0.0837867	0.0114334	-0.0471591	0.710656	0.439529	0	0	0.517082	-0.0120075	-0.135046	1.27307	0.0710464	0	0	-0.322507	0.0180195	0.0787941	0.724876	-0.436933	0.945217	2.02271	1.26962	0	0	-0.245347	-0.550186	0.521743	1.79278	1.34932	0	0
5.67477	-0.002618	-0.04768	-3.21283	-0.224442	0.932372	-0.00339602	0.0493909	0.00525068	-0.041473	0.670828	0.402838	0	0	0.530501	-0.00412936	-0.134362	1.21295	0.0781077	0	0	-0.310863	0.00685731	0.0920084	0.736481	-0.431607	0.960011	2.02199	1.26719	0	0	-0.2784	-0.555226	0.502152	1.80101	1.34633	0	0
5.68476	0.00522354	-0.0546174	-3.21112	-0.225976	0.938427	-0.00355704	0.0175294	-0.000959797	-0.0367115	0.631181	0.359884	0	0	0.541984	0.00411827	-0.133283	1.14656	0.0838981	0	0	-0.29687	-0.0039372	0.104708	0.744844	-0.427365	0.975821	2.02024	1.26428	0	0	-0.310386	-0.559678	0.482613	1.80883	1.34355	0	0
5.69475	0.0147649	-0.061132	-3.20908	-0.22778	0.944382	-0.00364151	-0.0113173	-0.00697564	-0.0328031	0.592605	0.311454	0	0	0.551723	0.0125513	-0.131528	1.07478	0.0888792	0	0	-0.280531	-0.0141295	0.117108	0.750125	-0.424165	0.992556	2.01737	1.26109	0	0	-0.340889	-0.56355	0.463513	1.81603	1.34116	0	0
5.70474	0.0258971	-0.0669899	-3.20684	-0.22982	0.950104	-0.00365623	-0.0368369	-0.01253	-0.0296118	0.555952	0.258598	0	0	0.559872	0.0209519	-0.128816	0.998647	0.0935063	0	0	-0.262018	-0.0234824	0.129424	0.752533	-0.421977	1.01008	2.01333	1.25781	0	0	-0.369431	-0.566889	0.445296	1.82246	1.33922	0	0
5.71473	0.0383992	-0.071968	-3.2045	-0.232055	0.955472	-0.00360519	-0.0588808	-0.0173526	-0.0270068	0.522036	0.202588	0	0	0.566564	0.0291159	-0.124856	0.919382	0.0981978	0	0	-0.241654	-0.0317794	0.141808	0.752311	-0.420774	1.0282	2.00811	1.25455	0	0	-0.395496	-0.569783	0.428438	1.82803	1.33771	0	0
5.72472	0.0519613	-0.0758751	-3.20208	-0.234441	0.960378	-0.0034874	-0.0774438	-0.0212032	-0.0249154	0.491641	0.144839	0	0	0.571934	0.0368769	-0.119384	0.838384	0.103283	0	0	-0.219887	-0.0388447	0.154321	0.749717	-0.420541	1.04673	2.00177	1.25131	0	0	-0.418541	-0.572355	0.413433	1.83273	1.33654	0	0
5.73471	0.0662158	-0.078569	-3.19952	-0.236934	0.964722	-0.00329663	-0.0926261	-0.0238969	-0.0233489	0.465516	0.0868447	0	0	0.576139	0.0441124	-0.112207	0.757217	0.108956	0	0	-0.197246	-0.0445612	0.166937	0.745001	-0.421274	1.06539	1.99441	1.24795	0	0	-0.438006	-0.574765	0.40078	1.83657	1.33565	0	0
5.74471	0.0807635	-0.0799816	-3.19667	-0.239487	0.968417	-0.00302171	-0.104604	-0.0253352	-0.0224253	0.444368	0.0300991	0	0	0.579367	0.050762	-0.103257	0.67757	0.115248	0	0	-0.174317	-0.0488977	0.179538	0.738385	-0.422975	1.08391	1.98618	1.24428	0	0	-0.453346	-0.577186	0.390957	1.83958	1.33496	0	0
5.7547	0.0951987	-0.080139	-3.19333	-0.242055	0.971388	-0.00264786	-0.113603	-0.0255334	-0.0223717	0.428848	-0.0239787	0	0	0.581835	0.0568387	-0.0926498	0.601201	0.122015	0	0	-0.151703	-0.0519315	0.191928	0.730055	-0.425639	1.10199	1.97721	1.24013	0	0	-0.464058	-0.579793	0.384385	1.84181	1.33443	0	0
5.76469	0.10913	-0.0791693	-3.18927	-0.244595	0.973572	-0.00215902	-0.119867	-0.0246331	-0.023506	0.419523	-0.0741343	0	0	0.583778	0.0624269	-0.0807171	0.529878	0.128944	0	0	-0.129997	-0.0538557	0.203846	0.720163	-0.429238	1.11932	1.96763	1.23538	0	0	-0.469714	-0.582735	0.381408	1.84332	1.33405	0	0
5.77468	0.122186	-0.077293	-3.18427	-0.247067	0.974921	-0.00154064	-0.123668	-0.0228954	-0.0261962	0.416847	-0.119357	0	0	0.58543	0.067669	-0.0680164	0.465305	0.135569	0	0	-0.109773	-0.054964	0.214983	0.708846	-0.433704	1.13561	1.95751	1.22996	0	0	-0.469991	-0.586123	0.382273	1.84416	1.33378	0	0
